<svg width="25" height="25" viewBox="0 0 25 25" fill="none" xmlns="http://www.w3.org/2000/svg">
<path d="M14.0327 0.363525V2.01647C15.6676 2.01647 17.1992 2.42971 18.6276 3.25618C19.9871 4.06544 21.0713 5.15018 21.8802 6.51042C22.7062 7.93953 23.1193 9.47195 23.1193 11.1077H24.7714C24.7714 9.16202 24.2809 7.35411 23.3 5.68395C22.3534 4.06544 21.0713 2.78268 19.4536 1.83568C17.7843 0.854244 15.9773 0.363525 14.0327 0.363525ZM5.48818 2.84294C5.02353 2.84294 4.61911 2.9893 4.27492 3.28201L1.61606 5.99387L1.6935 5.94222C1.26327 6.3038 0.97931 6.75147 0.841634 7.28524C0.721168 7.819 0.755587 8.33555 0.944891 8.83487C1.42676 10.1779 2.07211 11.5553 2.88095 12.9672C4.01678 14.9129 5.36772 16.6605 6.93378 18.2102C9.44635 20.7412 12.5699 22.7386 16.3043 24.2021H16.3301C16.8292 24.3743 17.3283 24.4087 17.8274 24.3054C18.3436 24.2021 18.7997 23.9783 19.1955 23.6339L21.8027 21.0253C22.1469 20.681 22.319 20.2591 22.319 19.7598C22.319 19.2433 22.1469 18.8128 21.8027 18.4684L18.4211 15.0592C18.0769 14.7149 17.6467 14.5427 17.1304 14.5427C16.6141 14.5427 16.1839 14.7149 15.8397 15.0592L14.2134 16.7122C12.9055 16.0923 11.7696 15.3261 10.8059 14.4136C9.84217 13.4838 9.07635 12.356 8.50844 11.0302L10.1605 9.37725C10.5219 8.99845 10.7026 8.55077 10.7026 8.03423C10.7026 7.50046 10.4961 7.07001 10.0831 6.74286L10.1605 6.82035L6.70145 3.28201C6.35726 2.9893 5.95284 2.84294 5.48818 2.84294ZM14.0327 3.66942V5.32236C15.0824 5.32236 16.0462 5.58064 16.9239 6.09718C17.8187 6.61373 18.5243 7.31967 19.0406 8.21502C19.5569 9.09315 19.815 10.0574 19.815 11.1077H21.4671C21.4671 9.76466 21.1316 8.51634 20.4604 7.36272C19.7892 6.24354 18.8943 5.34819 17.7757 4.67668C16.6227 4.00517 15.375 3.66942 14.0327 3.66942ZM5.48818 4.49589C5.53981 4.49589 5.60004 4.52172 5.66888 4.57337L9.05054 8.03423C9.06775 8.1031 9.05054 8.16336 8.99891 8.21502L6.54656 10.6428L6.72726 11.1593L7.06285 11.8825C7.3382 12.4679 7.65657 13.0361 8.01797 13.5871C8.51705 14.3619 9.06775 15.0248 9.67008 15.5758C10.4789 16.3678 11.4513 17.091 12.5871 17.7453C13.155 18.0724 13.6369 18.3135 14.0327 18.4684L14.549 18.7009L17.0529 16.1956C17.0873 16.1612 17.1132 16.144 17.1304 16.144C17.1476 16.144 17.1734 16.1612 17.2078 16.1956L20.6927 19.6823C20.7271 19.7168 20.7444 19.7426 20.7444 19.7598C20.7444 19.7598 20.7271 19.777 20.6927 19.8115L18.1113 22.3684C17.7327 22.6955 17.3197 22.7816 16.8722 22.6266C13.3615 21.2664 10.4359 19.4068 8.09541 17.0479C6.64982 15.6016 5.38493 13.9573 4.30073 12.1149C3.52631 10.7891 2.92398 9.50638 2.49374 8.26667V8.24085C2.4249 8.08588 2.4163 7.90509 2.46793 7.69847C2.51955 7.47464 2.61421 7.30245 2.75188 7.18193L5.30748 4.57337C5.35911 4.52172 5.41935 4.49589 5.48818 4.49589ZM14.0327 6.97531V8.62825C14.721 8.62825 15.3062 8.86931 15.788 9.35142C16.2699 9.83353 16.5108 10.4189 16.5108 11.1077H18.1629C18.1629 10.3673 17.9736 9.67856 17.595 9.04149C17.2336 8.40442 16.7346 7.90509 16.0978 7.54351C15.4611 7.16471 14.7727 6.97531 14.0327 6.97531Z" fill="#0A4B65"/>
</svg>
