<svg width="24" height="24" viewBox="0 0 24 24" fill="none" xmlns="http://www.w3.org/2000/svg">
<path d="M11.3778 4.44727C11.4129 4.9328 11.1156 5.44788 10.4898 5.44973C8.78949 5.44973 7.08919 5.49773 5.39072 5.54757C4.54149 5.57157 3.69226 5.60665 2.84119 5.61773C2.53472 5.61773 1.43257 5.39065 1.08734 5.52542C1.19811 5.49957 1.10765 5.80603 1.11134 5.95557C1.12522 6.22104 1.15854 6.48513 1.21103 6.74573C1.29226 7.20542 1.35872 7.6688 1.43257 8.1285C1.58949 9.12173 1.88672 10.246 1.31626 11.1636C1.20535 11.3527 1.02815 11.4938 0.819039 11.5597C0.609927 11.6255 0.383815 11.6113 0.18457 11.5199V19.5525H23.8153V4.44727H11.3778Z" fill="#00247D"/>
<path d="M6.09229 14.3521L6.48367 15.3453L7.50459 15.0314L6.9729 15.9582L7.85352 16.5601L6.79752 16.7225L6.87506 17.7859L6.09229 17.0622L5.30767 17.7859L5.38705 16.7225L4.33105 16.5601L5.21167 15.9582L4.67998 15.0314L5.7009 15.3453L6.09229 14.3521Z" fill="#D9E2E9"/>
<path d="M18.12 6.36548L18.312 6.85656L18.816 6.70148L18.5539 7.15748L18.9877 7.45656L18.4671 7.53594L18.5059 8.06025L18.12 7.70394L17.7323 8.06025L17.7711 7.53594L17.2505 7.45656L17.6862 7.15748L17.4222 6.70148L17.9262 6.85656L18.12 6.36548Z" fill="#D9E2E9"/>
<path d="M20.7267 9.57227L20.9187 10.0615L21.4227 9.90642L21.1606 10.3643L21.5944 10.6615L21.0738 10.7409L21.1126 11.2652L20.7267 10.9089L20.339 11.2652L20.3778 10.7409L19.8572 10.6615L20.291 10.3643L20.0289 9.90642L20.5329 10.0615L20.7267 9.57227Z" fill="#D9E2E9"/>
<path d="M15.4671 10.7649L15.6609 11.2541L16.1649 11.1009L15.9027 11.5569L16.3366 11.8541L15.816 11.9335L15.8547 12.4578L15.4671 12.1015L15.0812 12.4578L15.1181 11.9335L14.5994 11.8541L15.0332 11.5569L14.7711 11.1009L15.2732 11.2541L15.4671 10.7649Z" fill="#D9E2E9"/>
<path d="M18.9877 12.6572L19.1224 12.9951L19.4677 12.888L19.2867 13.2037L19.5858 13.4068L19.2277 13.4621L19.2554 13.824L18.9877 13.5766L18.7218 13.824L18.7495 13.4621L18.3914 13.4068L18.6904 13.2037L18.5095 12.888L18.8547 12.9951L18.9877 12.6572Z" fill="#D9E2E9"/>
<path d="M17.3982 15.7439L17.5921 16.2331L18.0961 16.0799L17.8339 16.5359L18.2677 16.8331L17.7471 16.9125L17.7859 17.4387L17.3982 17.0805L17.0124 17.4387L17.0511 16.9125L16.5305 16.8331L16.9644 16.5359L16.7022 16.0799L17.2062 16.2331L17.3982 15.7439Z" fill="#D9E2E9"/>
<path d="M11.9741 9.14391C11.5403 9.14391 11.4203 8.65468 11.6215 8.38883C11.6086 8.24668 11.5956 8.10453 11.5938 7.96237C11.5919 7.93841 11.5919 7.91434 11.5938 7.89037C11.5938 7.66699 11.7212 7.3716 11.9926 7.34945V5.51806L11.544 5.20976C11.4886 5.20976 11.8836 5.04914 11.8338 5.02514C11.7297 4.95853 11.6315 4.88318 11.5403 4.79991L11.4923 4.76114C11.4514 4.72992 11.4089 4.70095 11.3649 4.67437C11.2726 4.6153 10.9052 4.83314 10.8683 4.74268L11.0529 4.4436H6.92488C6.91683 4.55394 6.8664 4.65689 6.78415 4.73087C6.70191 4.80486 6.59422 4.84416 6.48365 4.84053C6.39493 4.84197 6.3077 4.81759 6.23257 4.77037C6.11891 4.7796 6.00469 4.7796 5.89103 4.77037C5.82483 4.80435 5.75128 4.82147 5.67688 4.82022C5.57093 4.82396 5.46736 4.78829 5.3862 4.72008C5.30503 4.65188 5.25205 4.556 5.23749 4.45099H1.58765C1.57397 4.55548 1.52666 4.65267 1.45288 4.72791C1.41028 4.77069 1.35964 4.80462 1.30388 4.82775C1.24811 4.85087 1.18832 4.86275 1.12795 4.86268C1.0906 4.85769 1.05301 4.85461 1.01534 4.85345C0.975877 4.85301 0.936692 4.84679 0.899032 4.83499C0.843298 4.88245 0.776715 4.91542 0.705186 4.93099C0.667097 4.99749 0.611503 5.05227 0.54445 5.08938C0.477397 5.12649 0.401453 5.1445 0.324878 5.14145C0.277171 5.14052 0.229873 5.13243 0.18457 5.11745V7.3993H0.19934C0.28422 7.40126 0.366958 7.42633 0.438659 7.4718C0.510359 7.51727 0.56831 7.58142 0.60628 7.65736C0.64425 7.7333 0.660802 7.81816 0.654158 7.9028C0.647514 7.98744 0.617924 8.06867 0.56857 8.13776V8.45899C0.592599 8.52895 0.602024 8.60309 0.596263 8.67683C0.60182 8.73569 0.595494 8.79506 0.57766 8.85142C0.559826 8.90778 0.530848 8.95999 0.492446 9.00493C0.454045 9.04988 0.407004 9.08665 0.354115 9.11306C0.301227 9.13947 0.243571 9.15498 0.18457 9.15868V10.9864H0.24734C0.325632 10.9874 0.402358 11.0085 0.47024 11.0475C0.538123 11.0865 0.594913 11.1422 0.635225 11.2094C0.675537 11.2765 0.698036 11.3528 0.700586 11.431C0.703137 11.5093 0.685656 11.5869 0.649801 11.6565C0.735462 11.6749 0.814319 11.7168 0.877564 11.7774C0.940809 11.8381 0.985954 11.9151 1.00795 11.9999H5.30396C5.30734 11.8856 5.35587 11.7774 5.43891 11.6988C5.52196 11.6203 5.63276 11.5779 5.74703 11.5808C5.83828 11.5794 5.9278 11.6058 6.00365 11.6565H6.11442C6.19586 11.5909 6.29788 11.5563 6.40242 11.5587C6.46087 11.5574 6.51898 11.568 6.57328 11.5897C6.62758 11.6113 6.67696 11.6437 6.71848 11.6849C6.75999 11.7261 6.7928 11.7752 6.81494 11.8293C6.83708 11.8834 6.8481 11.9414 6.84734 11.9999H10.7704C10.7633 11.9377 10.7696 11.8747 10.7888 11.8151C10.808 11.7555 10.8398 11.7007 10.8819 11.6544C10.924 11.608 10.9756 11.5712 11.0331 11.5465C11.0906 11.5217 11.1527 11.5095 11.2153 11.5107C11.301 11.5091 11.3854 11.5315 11.459 11.5753C11.471 11.5705 11.4833 11.5668 11.496 11.5642C11.5337 11.4967 11.5894 11.441 11.6568 11.4032C11.7243 11.3654 11.8009 11.347 11.8781 11.3501C11.9192 11.35 11.9601 11.3549 12 11.3648V9.1993C12 9.1993 11.9833 9.14391 11.9741 9.14391Z" fill="#00247D"/>
<path d="M12 11.2983V11.9999H10.5969L6.39872 9.35434L6.67196 9.23619L6.50765 9.1328L6.09226 8.87065L5.91688 8.75988L5.32611 8.38696L5.24119 8.33527L5.06396 8.22265L4.12057 7.62819L3.82334 7.44173L0.18457 5.1488V4.44727H1.58765L5.78765 7.0928L5.51257 7.21096L5.87811 7.44173L6.09226 7.5765L6.26765 7.68727L6.86026 8.05834L6.94334 8.11188L7.11872 8.22265L8.26519 8.9445L8.56242 9.1328L12 11.2983Z" fill="#F0F5F9"/>
<path d="M12 11.5199V11.9999H11.4092L6.86026 9.1328L6.67196 9.01465L6.26765 8.75988L6.09226 8.64911L5.41657 8.22265L5.32611 8.16542L5.24119 8.11188L4.47319 7.62819L4.17596 7.44173L0.18457 4.92727V4.44727H0.773493L5.32611 7.31434L5.51257 7.4325L5.52549 7.44173L5.91688 7.68727L6.09042 7.79803H6.09226L6.76795 8.22265L6.86026 8.28173L6.94334 8.33527L7.91442 8.9445L8.21165 9.1328L12 11.5199Z" fill="#EF2B2D"/>
<path d="M12 4.44727V5.51803L8.36119 7.81096L8.06396 7.62819L7.11872 8.22265L6.94334 8.33527L6.86026 8.38696L6.26765 8.75988L6.09226 8.87065L5.67688 9.1328L5.51257 9.23619L5.32611 9.35434L1.12611 11.9999H0.18457V10.9291L3.62211 8.76357L3.91934 8.9445L5.06396 8.22265L5.24119 8.11188L5.32611 8.05834L5.91688 7.68727L6.09226 7.5765L6.30642 7.44173L6.67196 7.21096L6.86026 7.0928L11.0584 4.44727H12Z" fill="#F0F5F9"/>
<path d="M12 4.44727V4.92727L8.00857 7.44173L7.71134 7.62819L6.94334 8.11188L6.86026 8.16542L6.76795 8.22265L6.09226 8.64911L5.91688 8.75988L5.51257 9.0128L5.32611 9.13096V9.1328H5.32426L0.773493 11.9999H0.18457V11.5199L3.97472 9.1328L4.27196 8.9445L5.24119 8.33527L5.32611 8.28173L5.41657 8.22265L6.09042 7.79803H6.09226L6.26765 7.68727L6.65903 7.44173L6.67196 7.4325L6.86026 7.31434L11.4092 4.44727H12Z" fill="#EF2B2D"/>
<path d="M12 9.2253V7.34961L0.184615 7.34961V9.2253H12Z" fill="#F0F5F9"/>
<path d="M6.98389 11.9982L6.98389 4.44556H5.19866V11.9982H6.98389Z" fill="#F0F5F9"/>
<path d="M12 7.62819H6.67196V4.44727H5.51257V7.62819H0.18457V8.9445H5.51257V11.9999H6.67196V8.9445H12V7.62819Z" fill="#EF2B2D"/>
</svg>
