<svg width="16" height="16" viewBox="0 0 16 16" fill="none" xmlns="http://www.w3.org/2000/svg">
<g clip-path="url(#clip0_0_381)">
<path d="M7.9939 -0.00195312C5.5139 -0.00195312 3.4939 2.01805 3.4939 4.49805C3.49338 4.55166 3.50148 4.60501 3.5179 4.65605C3.5599 6.23505 4.2439 7.61605 5.0479 8.89605C5.8799 10.219 6.8429 11.459 7.4609 12.725C7.50153 12.8085 7.56458 12.8789 7.64298 12.9286C7.72137 12.9782 7.81203 13.005 7.90481 13.0061C7.99759 13.0071 8.08883 12.9823 8.16832 12.9344C8.24781 12.8866 8.31241 12.8175 8.3549 12.735C9.0049 11.47 10.0169 10.228 10.8909 8.90605C11.7639 7.58405 12.5099 6.15605 12.5099 4.50605C12.5108 4.44251 12.4996 4.37939 12.4769 4.32005C12.3799 1.92505 10.4129 -0.00195312 7.9939 -0.00195312ZM7.9939 0.998047C9.9339 0.998047 11.4939 2.55905 11.4939 4.49805C11.4934 4.53397 11.4967 4.56984 11.5039 4.60505C11.4739 5.91305 10.8699 7.12505 10.0569 8.35505C9.3689 9.39605 8.5909 10.471 7.9199 11.588C7.2829 10.476 6.5489 9.40305 5.8959 8.36505C5.1029 7.10205 4.5099 5.86005 4.5099 4.50505C4.50978 4.47587 4.5071 4.44676 4.5019 4.41805C4.51972 3.50411 4.89561 2.6337 5.54867 1.9941C6.20174 1.3545 7.0798 0.996825 7.9939 0.998047ZM7.9939 3.00005C7.1719 3.00005 6.4939 3.67805 6.4939 4.50005C6.4939 5.32205 7.1719 6.00005 7.9939 6.00005C8.8169 6.00005 9.4939 5.32205 9.4939 4.50005C9.4939 3.67805 8.8169 3.00005 7.9939 3.00005ZM7.9939 4.00005C8.2759 4.00005 8.4939 4.21805 8.4939 4.50005C8.4939 4.78205 8.2759 5.00005 7.9939 5.00005C7.92798 5.00099 7.86254 4.9887 7.80145 4.96391C7.74036 4.93911 7.68487 4.90232 7.63825 4.8557C7.59163 4.80908 7.55483 4.75359 7.53004 4.6925C7.50525 4.63141 7.49296 4.56597 7.4939 4.50005C7.4939 4.21805 7.7119 4.00005 7.9939 4.00005ZM12.0839 9.22705C11.9674 9.22733 11.8546 9.2683 11.7651 9.34286C11.6756 9.41743 11.6149 9.52092 11.5936 9.63545C11.5722 9.74999 11.5916 9.86839 11.6482 9.97019C11.7049 10.072 11.7953 10.1508 11.9039 10.193C12.9009 10.597 13.5419 11.126 13.8179 11.613C14.0949 12.1 14.0879 12.521 13.7269 13.039C13.0019 14.075 10.6909 14.993 8.0529 15.004C5.4139 15.014 3.0709 14.121 2.3049 13.082C1.9219 12.562 1.9029 12.139 2.1599 11.654C2.4179 11.17 3.0349 10.636 4.0159 10.224C4.07927 10.2007 4.13725 10.1647 4.18635 10.1183C4.23544 10.072 4.27463 10.0161 4.30154 9.95417C4.32846 9.89223 4.34255 9.82547 4.34296 9.75794C4.34336 9.6904 4.33009 9.62348 4.30392 9.56121C4.27776 9.49895 4.23925 9.44263 4.19073 9.39565C4.1422 9.34868 4.08466 9.31202 4.02158 9.2879C3.95849 9.26377 3.89118 9.25267 3.82369 9.25528C3.7562 9.25788 3.68994 9.27413 3.6289 9.30305C2.5089 9.77305 1.6919 10.405 1.2769 11.186C0.861902 11.966 0.933902 12.908 1.4999 13.676C2.6319 15.21 5.2109 16.016 8.0589 16.004C10.9059 15.992 13.4609 15.167 14.5469 13.614C15.0899 12.837 15.1269 11.891 14.6869 11.119C14.2489 10.347 13.4139 9.72505 12.2789 9.26605C12.2172 9.23978 12.1509 9.22618 12.0839 9.22605V9.22705Z" fill="black"/>
</g>
<defs>
<clipPath id="clip0_0_381">
<rect width="16" height="16" fill="white"/>
</clipPath>
</defs>
</svg>
