<svg width="14" height="14" viewBox="0 0 14 14" fill="none" xmlns="http://www.w3.org/2000/svg">
<g id="Vector">
<path id="Vector_2" d="M13.4733 12.5266L10.9999 10.0733C11.96 8.87621 12.4249 7.3568 12.2991 5.82747C12.1733 4.29814 11.4664 2.87512 10.3236 1.85103C9.18085 0.82694 7.68914 0.27961 6.15522 0.321583C4.6213 0.363557 3.16175 0.991644 2.0767 2.0767C0.991644 3.16175 0.363557 4.6213 0.321583 6.15522C0.27961 7.68914 0.82694 9.18085 1.85103 10.3236C2.87512 11.4664 4.29814 12.1733 5.82747 12.2991C7.3568 12.4249 8.87621 11.96 10.0733 10.9999L12.5266 13.4533C12.5886 13.5158 12.6623 13.5654 12.7436 13.5992C12.8248 13.633 12.9119 13.6505 12.9999 13.6505C13.0879 13.6505 13.1751 13.633 13.2563 13.5992C13.3376 13.5654 13.4113 13.5158 13.4733 13.4533C13.5934 13.329 13.6606 13.1628 13.6606 12.9899C13.6606 12.817 13.5934 12.6509 13.4733 12.5266V12.5266ZM6.33327 10.9999C5.41029 10.9999 4.50804 10.7262 3.74061 10.2135C2.97318 9.70068 2.37504 8.97185 2.02183 8.11913C1.66862 7.2664 1.57621 6.32809 1.75627 5.42285C1.93634 4.5176 2.38079 3.68608 3.03344 3.03344C3.68608 2.38079 4.5176 1.93634 5.42285 1.75627C6.32809 1.57621 7.2664 1.66862 8.11913 2.02183C8.97185 2.37504 9.70068 2.97318 10.2135 3.74061C10.7262 4.50804 10.9999 5.41029 10.9999 6.33327C10.9999 7.57095 10.5083 8.75793 9.6331 9.6331C8.75793 10.5083 7.57095 10.9999 6.33327 10.9999V10.9999Z" fill="#BCBDDB"/>
</g>
</svg>
