<svg width="25" height="24" viewBox="0 0 25 24" fill="none" xmlns="http://www.w3.org/2000/svg">
<path d="M17.1793 14.0602C16.9196 13.9289 15.6263 13.3055 15.3858 13.2211C15.1452 13.132 14.969 13.0898 14.7951 13.3523C14.6188 13.6125 14.1187 14.1914 13.9615 14.3672C13.809 14.5406 13.6542 14.5617 13.3946 14.4328C11.8512 13.6734 10.8389 13.0781 9.82191 11.3602C9.55276 10.9031 10.091 10.9359 10.5936 9.94922C10.6794 9.77578 10.6365 9.62813 10.5698 9.49688C10.5031 9.36563 9.97911 8.09531 9.75998 7.57734C9.548 7.07344 9.32888 7.14375 9.1693 7.13437C9.01686 7.125 8.84299 7.125 8.66674 7.125C8.49049 7.125 8.20705 7.19063 7.96649 7.44609C7.72593 7.70625 7.04712 8.33203 7.04712 9.60234C7.04712 10.8727 7.98793 12.1031 8.11654 12.2766C8.24992 12.45 9.9672 15.0563 12.6038 16.1789C14.2711 16.8867 14.9237 16.9477 15.7573 16.8258C16.2647 16.7508 17.3103 16.2023 17.527 15.5953C17.7437 14.9906 17.7437 14.4727 17.6794 14.3648C17.6151 14.25 17.4389 14.1844 17.1793 14.0602Z" fill="#0A4B65"/>
<path d="M22.2214 7.93125C21.6831 6.67266 20.9114 5.54297 19.9277 4.57266C18.944 3.60469 17.796 2.84297 16.5146 2.31563C15.2046 1.77422 13.8136 1.5 12.3798 1.5H12.3322C10.8888 1.50703 9.49068 1.78828 8.17593 2.34141C6.90644 2.87578 5.76794 3.63516 4.79379 4.60312C3.81963 5.57109 3.05508 6.69609 2.52632 7.95C1.97851 9.24844 1.70222 10.6289 1.70936 12.0492C1.71651 13.6758 2.11189 15.2906 2.85262 16.7344V20.2969C2.85262 20.8922 3.34327 21.375 3.94825 21.375H7.57096C9.03814 22.1039 10.6792 22.493 12.3322 22.5H12.3822C13.8089 22.5 15.1927 22.2281 16.4955 21.6961C17.7698 21.1734 18.9154 20.4234 19.8967 19.4648C20.8804 18.5063 21.6545 17.3859 22.1952 16.1367C22.7573 14.843 23.0431 13.4672 23.0502 12.0469C23.0574 10.6195 22.7763 9.23438 22.2214 7.93125ZM18.6225 18.1969C16.9528 19.8234 14.7378 20.7188 12.3798 20.7188H12.3393C10.9031 20.7117 9.47639 20.3602 8.21642 19.6992L8.01635 19.5938H4.66279V16.2938L4.55561 16.0969C3.88394 14.857 3.52667 13.4531 3.51953 12.0398C3.51 9.70312 4.41746 7.50937 6.08233 5.85703C7.74483 4.20469 9.96704 3.29062 12.3417 3.28125H12.3822C13.5731 3.28125 14.7282 3.50859 15.8167 3.95859C16.879 4.39687 17.8317 5.02734 18.6511 5.83359C19.468 6.6375 20.1111 7.57734 20.5565 8.62266C21.0186 9.70547 21.2496 10.8539 21.2448 12.0398C21.2305 14.3742 20.2993 16.5609 18.6225 18.1969Z" fill="#0A4B65"/>
</svg>
