<svg width="38" height="36" viewBox="0 0 38 36" fill="none" xmlns="http://www.w3.org/2000/svg">
<g clip-path="url(#clip0_0_264)">
<path d="M37.3275 18C37.3275 8.05887 29.1378 0 19.0353 0C8.93285 0 0.743164 8.05887 0.743164 18C0.743164 26.9843 7.43235 34.431 16.1772 35.7812V23.2031H11.5327V18H16.1772V14.0344C16.1772 9.52312 18.9081 7.03125 23.0864 7.03125C25.0877 7.03125 27.1811 7.38281 27.1811 7.38281V11.8125H24.8744C22.6021 11.8125 21.8935 13.2 21.8935 14.6235V18H26.9667L26.1557 23.2031H21.8935V35.7812C30.6383 34.431 37.3275 26.9843 37.3275 18Z" fill="#0A4B65"/>
<path d="M26.1557 23.2031L26.9667 18H21.8935V14.6235C21.8935 13.2 22.6022 11.8125 24.8745 11.8125H27.1811V7.38281C27.1811 7.38281 25.0878 7.03125 23.0864 7.03125C18.9081 7.03125 16.1772 9.52312 16.1772 14.0344V18H11.5327V23.2031H16.1772V35.7812C18.0711 36.0729 19.9996 36.0729 21.8935 35.7812V23.2031H26.1557Z" fill="white"/>
</g>
<defs>
<clipPath id="clip0_0_264">
<rect width="36.5843" height="36" fill="white" transform="translate(0.743164)"/>
</clipPath>
</defs>
</svg>
