<svg width="38" height="36" viewBox="0 0 38 36" fill="none" xmlns="http://www.w3.org/2000/svg">
<path d="M18.7233 2.99994C15.1037 3.00009 11.6022 4.26761 8.84543 6.57571C6.08865 8.88381 4.25643 12.0819 3.67662 15.5977C3.09681 19.1135 3.80723 22.7176 5.68078 25.7651C7.55433 28.8126 10.4687 31.1047 13.9025 32.2312C14.6647 32.3625 14.9505 31.9125 14.9505 31.5187C14.9505 31.1624 14.9315 29.9812 14.9315 28.7249C11.1015 29.4187 10.1107 27.8062 9.80582 26.9625C9.46753 26.1419 8.93126 25.4147 8.24336 24.8437C7.70984 24.5624 6.94767 23.8687 8.22429 23.85C8.71176 23.902 9.17929 24.0689 9.58727 24.3366C9.99526 24.6042 10.3317 24.9647 10.568 25.3874C10.7765 25.756 11.0568 26.0804 11.393 26.3422C11.7291 26.6039 12.1144 26.7978 12.5268 26.9128C12.9393 27.0277 13.3707 27.0615 13.7964 27.0121C14.2221 26.9627 14.6337 26.8311 15.0076 26.6249C15.0736 25.8624 15.419 25.1494 15.9794 24.6187C12.5878 24.2437 9.04365 22.9499 9.04365 17.2125C9.02222 15.7217 9.58126 14.2794 10.6061 13.1812C10.1401 11.8856 10.1946 10.4637 10.7585 9.20623C10.7585 9.20623 12.0351 8.81247 14.9505 10.7437C17.4448 10.0687 20.078 10.0687 22.5722 10.7437C25.4875 8.79373 26.7642 9.20623 26.7642 9.20623C27.3282 10.4636 27.3827 11.8856 26.9166 13.1812C27.9445 14.2775 28.5041 15.7211 28.4791 17.2125C28.4791 22.9687 24.9159 24.2437 21.5242 24.6187C21.888 24.9816 22.1682 25.4172 22.3457 25.896C22.5233 26.3748 22.594 26.8856 22.5532 27.3937C22.5532 29.4 22.5341 31.0125 22.5341 31.5187C22.5341 31.9125 22.8199 32.3812 23.5821 32.2312C27.0098 31.0955 29.9159 28.7981 31.7814 25.749C33.647 22.6999 34.3507 19.0977 33.7668 15.5853C33.183 12.0729 31.3497 8.879 28.5941 6.57371C25.8385 4.26841 22.3401 3.00179 18.7233 2.99994Z" fill="#0A4B65"/>
</svg>
