<svg width="38" height="36" viewBox="0 0 38 36" fill="none" xmlns="http://www.w3.org/2000/svg">
<g clip-path="url(#clip0_0_271)">
<path d="M28.96 0H8.79868C4.26358 0 0.587158 3.6177 0.587158 8.08036V27.9196C0.587158 32.3823 4.26358 36 8.79868 36H28.96C33.4951 36 37.1715 32.3823 37.1715 27.9196V8.08036C37.1715 3.6177 33.4951 0 28.96 0Z" fill="#0A4B65"/>
<path d="M13.2593 6.23483H24.6642C24.9177 6.35953 25.2978 6.35953 25.5513 6.48423C26.6634 6.66159 27.7032 7.14065 28.5539 7.86759C29.4046 8.59452 30.0323 9.5405 30.3667 10.5992C30.5538 11.2093 30.6811 11.8357 30.7468 12.4697V23.443C30.5657 24.8337 30.0438 26.1603 29.2262 27.3086C28.5247 28.1083 27.6453 28.7381 26.6563 29.149C25.6673 29.5599 24.5954 29.7409 23.5237 29.6779H14.0197C12.3236 29.7589 10.6559 29.2266 9.33099 28.1815C8.52531 27.4965 7.88949 26.6392 7.47219 25.6753C7.05488 24.7114 6.86713 23.6663 6.9233 22.62V13.8912C6.90236 13.2651 6.94481 12.6386 7.05002 12.0208C7.17798 10.7424 7.71215 9.53616 8.57661 8.57357C9.44108 7.61099 10.5919 6.94099 11.8654 6.6588L13.2593 6.23483ZM9.33099 18.081V22.9442C9.27697 23.5635 9.36116 24.1869 9.57768 24.7708C9.7942 25.3548 10.1378 25.885 10.5845 26.3246C11.0311 26.7641 11.57 27.1022 12.1634 27.3153C12.7568 27.5283 13.3903 27.6112 14.0197 27.558C17.3144 27.6827 20.6092 27.6827 23.9039 27.558C26.8185 27.558 28.4659 25.8122 28.5926 22.9442C28.7193 19.7021 28.7193 16.46 28.5926 13.2179C28.6254 12.6035 28.5266 11.9891 28.3026 11.4147C28.0786 10.8403 27.7344 10.3187 27.2923 9.88362C26.8502 9.44858 26.32 9.10985 25.7363 8.88941C25.1526 8.66898 24.5283 8.57176 23.9039 8.60407C20.6092 8.47938 17.3144 8.47938 14.0197 8.60407C13.3903 8.55091 12.7568 8.63376 12.1634 8.84682C11.57 9.05988 11.0311 9.39801 10.5845 9.83753C10.1378 10.277 9.7942 10.8073 9.57768 11.3912C9.36116 11.9751 9.27697 12.5986 9.33099 13.2179V18.081Z" fill="white"/>
<path d="M12.8032 18.1309C12.8066 16.5114 13.4618 14.9592 14.6256 13.814C15.7893 12.6689 17.3668 12.0241 19.0125 12.0208C20.6492 12.0527 22.2098 12.7067 23.3673 13.8457C24.5249 14.9847 25.1895 16.5204 25.2219 18.1309C25.2185 19.7504 24.5633 21.3027 23.3995 22.4478C22.2358 23.593 20.6583 24.2378 19.0125 24.2411C17.3759 24.2092 15.8153 23.5552 14.6578 22.4162C13.5002 21.2771 12.8356 19.7415 12.8032 18.1309ZM19.0125 14.2653C18.2429 14.253 17.487 14.4671 16.8418 14.8803C16.1966 15.2934 15.6914 15.8867 15.3911 16.5841C15.0907 17.2816 15.0088 18.0514 15.1559 18.7949C15.303 19.5384 15.6724 20.2218 16.2167 20.7574C16.7611 21.293 17.4555 21.6565 18.2111 21.8012C18.9667 21.946 19.749 21.8654 20.4577 21.5699C21.1665 21.2743 21.7694 20.7772 22.1893 20.1423C22.6091 19.5074 22.8267 18.7636 22.8142 18.0062C22.8142 17.0141 22.4136 16.0626 21.7007 15.361C20.9878 14.6595 20.0208 14.2653 19.0125 14.2653Z" fill="white"/>
<path d="M23.8278 11.7714C23.8207 11.573 23.8552 11.3753 23.9291 11.1906C24.003 11.0059 24.1148 10.8381 24.2574 10.6978C24.4001 10.5574 24.5706 10.4474 24.7583 10.3747C24.946 10.302 25.1469 10.268 25.3485 10.275C25.743 10.3013 26.1144 10.4673 26.394 10.7425C26.6736 11.0176 26.8424 11.3831 26.8691 11.7714C26.8691 12.1682 26.7089 12.5488 26.4237 12.8295C26.1385 13.1101 25.7518 13.2677 25.3485 13.2677C24.9452 13.2677 24.5584 13.1101 24.2732 12.8295C23.988 12.5488 23.8278 12.1682 23.8278 11.7714Z" fill="white"/>
</g>
<defs>
<clipPath id="clip0_0_271">
<rect width="36.5843" height="36" fill="white" transform="translate(0.587158)"/>
</clipPath>
</defs>
</svg>
