<svg width="25" height="24" viewBox="0 0 25 24" fill="none" xmlns="http://www.w3.org/2000/svg">
<g clip-path="url(#clip0_0_254)">
<path d="M0.275391 7.5H5.72951V24H0.275391V7.5ZM20.5858 7.6935C20.5279 7.6755 20.473 7.656 20.412 7.6395C20.3388 7.6232 20.2651 7.60919 20.191 7.5975C19.8689 7.53271 19.5411 7.50004 19.2124 7.5C16.0326 7.5 14.0159 9.7755 13.3512 10.6545V7.5H7.89713V24H13.3512V15C13.3512 15 17.4731 9.351 19.2124 13.5V24H24.6649V12.8655C24.6627 11.6807 24.261 10.5301 23.5228 9.59416C22.7846 8.65818 21.7516 7.9897 20.5858 7.6935Z" fill="#0A4B65"/>
<path d="M2.943 5.25C4.41628 5.25 5.61061 4.07475 5.61061 2.625C5.61061 1.17525 4.41628 0 2.943 0C1.46972 0 0.275391 1.17525 0.275391 2.625C0.275391 4.07475 1.46972 5.25 2.943 5.25Z" fill="#0A4B65"/>
</g>
<defs>
<clipPath id="clip0_0_254">
<rect width="24.3896" height="24" fill="white" transform="translate(0.275391)"/>
</clipPath>
</defs>
</svg>
