<svg width="38" height="24" viewBox="0 0 38 24" fill="none" xmlns="http://www.w3.org/2000/svg">
<g clip-path="url(#clip0_0_259)">
<path d="M25.2941 11.6504C21.9397 9.97619 18.7279 8.43702 15.4448 6.83002V16.4435C18.8996 14.6894 22.5411 13.0831 25.3083 11.6504H25.2941Z" fill="white"/>
<path d="M25.2941 11.6504C21.9397 9.97619 15.4448 6.83002 15.4448 6.83002L24.1042 12.2659C24.1042 12.2659 22.5268 13.0831 25.2941 11.6504Z" fill="#E8E0E0"/>
<path d="M16.0761 23.9688C9.10879 23.849 6.72911 23.7412 5.26642 23.4598C4.27681 23.2728 3.41684 22.8575 2.78628 22.2553C2.29894 21.7995 1.91138 21.1041 1.6107 20.1393C1.35277 19.3355 1.25232 18.6667 1.1091 17.033C0.88987 13.3461 0.837606 10.3318 1.1091 6.96377C1.33309 5.10384 1.44169 2.89588 2.9295 1.60774C3.632 1.00488 4.44921 0.616915 5.36687 0.456532C6.80038 0.202328 12.9077 0.00137329 19.2302 0.00137329C25.5385 0.00137329 31.6594 0.202328 33.0943 0.456532C34.2407 0.657486 35.3158 1.25971 35.947 2.03627C37.3045 4.0306 37.3283 6.51052 37.4661 8.45033C37.5231 9.37459 37.5231 14.6229 37.4661 15.5471C37.2516 18.6128 37.0792 19.6974 36.5918 20.822C36.2905 21.532 36.0332 21.9067 35.588 22.3219C34.8897 22.9608 33.9994 23.3859 33.0359 23.5403C27.0066 23.9637 21.8868 24.0557 16.0761 23.9688ZM25.3091 11.6504C21.9547 9.97619 18.7429 8.4237 15.4598 6.8167V16.4308C18.9146 14.6767 22.5568 13.0697 25.3233 11.6371L25.3091 11.6504Z" fill="#0A4B65"/>
</g>
<defs>
<clipPath id="clip0_0_259">
<rect width="36.5843" height="24" fill="white" transform="translate(0.924561)"/>
</clipPath>
</defs>
</svg>
